<svg width="45" height="37" viewBox="0 0 45 37" fill="none" xmlns="http://www.w3.org/2000/svg">
<path d="M3.375 0.5C1.47656 0.5 0 2.04688 0 3.875V8.375C0 9.00781 0.492188 9.5 1.125 9.5H6.75V3.875C6.75 2.04688 5.20312 0.5 3.375 0.5ZM18 29.5391V25.25H38.25V7.25C38.25 3.59375 35.1562 0.5 31.5 0.5H7.80469C8.50781 1.48438 9 2.60938 9 3.875V29.75C9 32.4922 11.3906 34.6719 14.2031 34.25C16.4531 33.8281 18 31.7891 18 29.5391ZM20.25 27.5V29.75C20.25 33.4766 17.1562 36.5 13.5 36.5H37.125C41.4141 36.5 45 32.9844 45 28.625C45 28.0625 44.4375 27.5 43.875 27.5H20.25Z" fill="#454545"/>
</svg>
