<svg width="55" height="42" viewBox="0 0 55 42" fill="none" xmlns="http://www.w3.org/2000/svg">
<path d="M27.25 10.9688L10 25.2188V40.5C10 41.3438 10.6562 42 11.5 42H22C22.75 42 23.4062 41.3438 23.4062 40.5V31.5C23.4062 30.75 24.1562 30 24.9062 30H30.9062C31.75 30 32.4062 30.75 32.4062 31.5V40.5C32.4062 41.3438 33.1562 42 33.9062 42H44.5C45.25 42 46 41.3438 46 40.5V25.125L28.6562 10.9688C28.4688 10.7812 28.1875 10.6875 28 10.6875C27.7188 10.6875 27.4375 10.7812 27.25 10.9688ZM54.5312 20.625L46.75 14.1562V1.21875C46.75 0.5625 46.1875 0.09375 45.625 0.09375H40.375C39.7188 0.09375 39.25 0.5625 39.25 1.21875V7.96875L30.8125 1.03125C30.0625 0.46875 29.0312 0.09375 28 0.09375C26.875 0.09375 25.8438 0.46875 25.0938 1.03125L1.375 20.625C1.09375 20.8125 0.90625 21.1875 0.90625 21.4688C0.90625 21.75 1.09375 22.0312 1.1875 22.2188L3.625 25.125C3.8125 25.4062 4.09375 25.5 4.46875 25.5C4.75 25.5 5.03125 25.4062 5.21875 25.2188L27.25 7.125C27.4375 6.9375 27.7188 6.84375 28 6.84375C28.1875 6.84375 28.4688 6.9375 28.6562 7.125L50.6875 25.2188C50.875 25.4062 51.1562 25.5 51.4375 25.5C51.8125 25.5 52.0938 25.4062 52.2812 25.125L54.7188 22.2188C54.9062 22.0312 55 21.75 55 21.4688C55 21.1875 54.8125 20.8125 54.5312 20.625Z" fill="#454545"/>
</svg>
