<svg width="36" height="43" viewBox="0 0 36 43" fill="none" xmlns="http://www.w3.org/2000/svg">
<path d="M34.875 29.5H11.25V28.375C11.25 27.8125 10.6875 27.25 10.125 27.25H7.875C7.24219 27.25 6.75 27.8125 6.75 28.375V29.5H1.125C0.492188 29.5 0 30.0625 0 30.625V32.875C0 33.5078 0.492188 34 1.125 34H6.75V35.125C6.75 35.7578 7.24219 36.25 7.875 36.25H10.125C10.6875 36.25 11.25 35.7578 11.25 35.125V34H34.875C35.4375 34 36 33.5078 36 32.875V30.625C36 30.0625 35.4375 29.5 34.875 29.5ZM34.875 18.25H29.25V17.125C29.25 16.5625 28.6875 16 28.125 16H25.875C25.2422 16 24.75 16.5625 24.75 17.125V18.25H1.125C0.492188 18.25 0 18.8125 0 19.375V21.625C0 22.2578 0.492188 22.75 1.125 22.75H24.75V23.875C24.75 24.5078 25.2422 25 25.875 25H28.125C28.6875 25 29.25 24.5078 29.25 23.875V22.75H34.875C35.4375 22.75 36 22.2578 36 21.625V19.375C36 18.8125 35.4375 18.25 34.875 18.25ZM34.875 7H20.25V5.875C20.25 5.3125 19.6875 4.75 19.125 4.75H16.875C16.2422 4.75 15.75 5.3125 15.75 5.875V7H1.125C0.492188 7 0 7.5625 0 8.125V10.375C0 11.0078 0.492188 11.5 1.125 11.5H15.75V12.625C15.75 13.2578 16.2422 13.75 16.875 13.75H19.125C19.6875 13.75 20.25 13.2578 20.25 12.625V11.5H34.875C35.4375 11.5 36 11.0078 36 10.375V8.125C36 7.5625 35.4375 7 34.875 7Z" fill="#454545"/>
</svg>
