<svg width="37" height="48" viewBox="0 0 37 48" fill="none" xmlns="http://www.w3.org/2000/svg">
<path d="M12.25 6.75C12.25 10.5 15.25 13.5 19 13.5C22.6562 13.5 25.75 10.5 25.75 6.75C25.75 3.09375 22.6562 0 19 0C15.25 0 12.25 3.09375 12.25 6.75ZM36.0625 6.9375C34.9375 5.71875 32.9688 5.71875 31.8438 6.9375L23.6875 15H14.2188L6.0625 6.9375C4.9375 5.71875 2.96875 5.71875 1.84375 6.9375C0.625 8.0625 0.625 10.0312 1.84375 11.1562L10.75 20.0625V45C10.75 46.6875 12.0625 48 13.75 48H15.25C16.8438 48 18.25 46.6875 18.25 45V34.5H19.75V45C19.75 46.6875 21.0625 48 22.75 48H24.25C25.8438 48 27.25 46.6875 27.25 45V20.0625L36.0625 11.1562C37.2812 10.0312 37.2812 8.0625 36.0625 6.9375Z" fill="#454545"/>
</svg>
